<svg width="1698" height="452" viewBox="0 0 1698 452" fill="none" xmlns="http://www.w3.org/2000/svg">
<g clip-path="url(#clip0_5538_4354)">
<path d="M0 9.87988H182.18C239.4 9.87988 283.34 42.8399 283.34 94.5599C283.34 129.54 260.79 156.86 233.15 167.11C232.96 167.18 232.98 167.44 233.18 167.48C266.72 175.03 291.12 203.3 291.12 243.32C291.12 295.96 245.35 330.29 187.67 330.29H0V9.87988ZM175.32 139.88C204.16 139.88 219.72 127.06 219.72 101.43C219.72 79.9099 202.78 65.7299 175.32 65.7299H63.17V139.88H175.32ZM178.52 274.46C208.27 274.46 227.5 258.9 227.5 234.64C227.5 209.01 209.65 195.73 178.52 195.73H63.17V274.46H178.52Z" fill="#F16122"/>
<path d="M315.89 9.87988H381.35V73.5099H315.89V9.87988ZM318.18 101.43H379.06V330.3H318.18V101.43Z" fill="#F16122"/>
<path d="M958.19 5.2998C1049.74 5.2998 1107.42 54.2798 1116.57 115.16H1050.2C1041.96 80.8298 1006.26 61.1498 961.86 61.1498H954.54C885.88 61.1498 843.76 108.76 843.76 170.09C843.76 231.42 885.87 279.03 954.54 279.03H961.86C1007.63 279.03 1042.42 260.26 1050.2 225.02H1116.57C1106.5 289.56 1046.99 334.88 958.19 334.88C849.25 336.25 779.21 264.84 780.13 170.09C780.13 75.7998 850.62 5.2998 958.19 5.2998Z" fill="#F16122"/>
<path d="M1138.69 9.87988H1204.15V73.5099H1138.69V9.87988ZM1140.98 101.43H1201.86V330.3H1140.98V101.43Z" fill="#F16122"/>
<path d="M1272.9 150.41H1217.51V101.43H1272.9V27.2695H1333.78V101.43H1404.27V150.41H1333.78V261.64C1333.78 275.83 1338.81 279.95 1352.09 279.95H1414.34V330.3H1331.49C1290.75 330.3 1272.9 312.91 1272.9 279.95V150.41Z" fill="#F16122"/>
<path d="M1429.26 370.58H1509.82C1519.93 370.58 1528.13 362.38 1528.13 352.27V313.36L1417.36 101.42H1484.19L1559.72 247.9L1630.21 101.42H1697.04L1589.01 312.9V366.91C1589.01 405.82 1571.16 422.76 1533.17 422.76H1429.26V370.58Z" fill="#F16122"/>
<path d="M682.86 222.01L682.26 219.92L680.9 221.62C671.11 233.86 659.96 244.89 647.76 254.41C635.44 264.02 622.02 272.7 561.3 296.93C537.92 306.26 512.99 316.43 489.02 327.56C474.98 334.08 460.21 341.44 447.29 351.05C414.86 375.18 401.62 411.84 411.85 449.11L412.53 451.57L413.89 449.41C415.48 446.87 421.13 438.11 426.81 431.81C442.93 413.97 465.09 403.85 486.52 394.05L487.04 393.81C503.52 386.28 520.86 380.01 537.63 373.95C545.34 371.16 553.31 368.28 561.1 365.32C589.06 354.67 620.89 340.62 645.04 317.18C669.57 293.36 691.88 253.42 682.88 222" fill="#F16122"/>
<path d="M411.39 231.65L412.75 229.49C414.8 226.23 420.16 218 425.67 211.9C441.79 194.06 463.95 183.93 485.38 174.14L485.89 173.91C502.37 166.38 519.71 160.11 536.48 154.05C544.19 151.26 552.16 148.38 559.95 145.42C587.91 134.77 619.74 120.72 643.88 97.2798C668.41 73.4598 690.72 33.5098 681.72 2.09977L681.12 0.00976562L679.76 1.70977C669.97 13.9498 658.82 24.9798 646.62 34.4998C634.3 44.1098 620.89 52.7898 560.16 77.0198C533.13 87.8098 510.49 97.1398 487.88 107.65C473.84 114.17 459.07 121.53 446.15 131.14C413.72 155.27 400.48 191.93 410.71 229.19L411.39 231.65Z" fill="#F16122"/>
<path d="M412.5 237.29L411.14 235.59L410.54 237.68C401.54 269.1 423.85 309.04 448.38 332.86C448.66 333.13 448.95 333.4 449.24 333.67L450.39 334.74L451.14 334.21C463.45 325.47 477.07 318.73 489.96 312.74C495.62 310.11 501.61 307.41 507.76 304.71L510.15 303.66L507.74 302.65C466.95 285.53 455.87 278.06 445.64 270.08C433.44 260.56 422.29 249.53 412.5 237.29Z" fill="#F16122"/>
<path d="M643.9 118.44C642.99 117.55 641.97 116.6 640.69 115.44L639.93 114.76L639.18 115.45C625.86 127.62 609.14 138.3 588.06 148.1L585.77 149.17L588.1 150.16C626.07 166.26 636.7 173.47 646.65 181.23C658.85 190.75 670 201.78 679.79 214.02L681.15 215.72L681.75 213.63C690.75 182.21 668.44 142.27 643.91 118.45" fill="#F16122"/>
</g>
<defs>
<clipPath id="clip0_5538_4354">
<rect width="1697.04" height="451.57" fill="white"/>
</clipPath>
</defs>
</svg>
