<?xml version="1.0" encoding="UTF-8"?>
<svg id="Layer_2" data-name="Layer 2" xmlns="http://www.w3.org/2000/svg" xmlns:xlink="http://www.w3.org/1999/xlink" viewBox="0 0 2551.04 662.43">
  <defs>
    <style>
      .cls-1 {
        stroke: #000;
        stroke-miterlimit: 10;
        stroke-width: 2px;
      }

      .cls-1, .cls-2, .cls-3, .cls-4 {
        fill: none;
      }

      .cls-2 {
        opacity: .5;
      }

      .cls-4 {
        clip-path: url(#clippath);
      }
    </style>
    <clipPath id="clippath">
      <rect class="cls-3" width="2551.04" height="662.43"/>
    </clipPath>
  </defs>
  <g id="Layer_1-2" data-name="Layer 1">
    <g class="cls-2">
      <g class="cls-4">
        <path class="cls-1" d="m83.74.58c380.13,536.81,650.55,620.39,833.84,582.99,331.87-67.72,551.16-567.39,778.04-455.74,103.75,51.06,96.89,174.75,208.21,245.4,183.78,116.64,443.08-67.79,646.54-259.42"/>
        <path class="cls-1" d="m79.78,32.06c371.86,503.39,637.91,578.24,819.82,539.97,327.11-68.48,544.37-543.55,766.74-435.01,104.17,50.51,101.2,171.12,214.19,240.73,15.33,9.47,31.19,16.98,47.54,22.66,185.39,64.22,420.8-100.02,607.15-270.25"/>
        <path class="cls-1" d="m75.82,63.54c363.59,469.97,625.28,536.08,805.8,496.95,322.36-69.24,537.31-519.16,755.44-414.28,104.46,50.23,105.51,167.49,220.18,236.07,15.44,9.29,31.45,16.71,47.97,22.39,191.57,65.31,428.79-93.45,614.88-258.14"/>
        <path class="cls-1" d="m71.86,95.02c355.33,436.55,612.64,493.92,791.78,453.93,317.61-69.99,530.41-495.08,744.14-393.55,104.82,49.8,109.96,163.62,226.17,231.4,15.57,9.08,31.7,16.44,48.4,22.11,197.75,66.4,436.78-86.88,622.6-246.03"/>
        <path class="cls-1" d="m67.91,126.5c347.06,403.13,600.01,451.77,777.76,410.91,312.86-70.75,523.53-471.04,732.84-372.82,105.19,49.36,114.3,159.93,232.16,226.74,15.69,8.9,31.95,16.21,48.84,21.84,203.79,67.92,444.77-80.3,630.32-233.92"/>
        <path class="cls-1" d="m63.95,157.98c338.79,369.71,587.28,409.24,763.74,367.89,307.95-72.16,516.66-447.02,721.54-352.09,105.57,48.92,118.64,156.25,238.15,222.07,15.81,8.71,32.2,15.95,49.27,21.56,209.95,69.08,452.76-73.73,638.04-221.81"/>
        <path class="cls-1" d="m59.99,189.46c330.52,336.29,574.63,367.03,749.72,324.87,303.17-73.01,509.81-423.04,710.25-331.36,105.94,48.46,122.97,152.57,244.14,217.41,15.93,8.52,32.45,15.68,49.7,21.29,216.11,70.24,460.75-67.16,645.77-209.7"/>
        <path class="cls-1" d="m56.03,220.94c322.26,302.87,561.99,324.83,735.69,281.85,298.4-73.83,502.98-399.08,698.95-310.63,106.33,47.99,127.3,148.9,250.13,212.74,16.05,8.34,32.71,15.42,50.14,21.01,222.28,71.37,468.74-60.58,653.49-197.59"/>
        <path class="cls-1" d="m52.08,252.41c313.99,269.45,549.34,282.64,721.67,238.83,293.63-74.64,496.16-375.15,687.65-289.9,106.72,47.52,131.62,145.25,256.12,208.08,16.16,8.16,32.96,15.15,50.57,20.74,228.45,72.49,476.73-54.01,661.21-185.48"/>
        <path class="cls-1" d="m48.12,283.89c305.72,236.03,536.69,240.45,707.66,195.81,288.86-75.44,489.35-351.26,676.35-269.17,107.12,47.02,135.93,141.59,262.1,203.41,16.28,7.98,33.22,14.89,51,20.46,234.63,73.6,484.71-47.44,668.93-173.37"/>
        <path class="cls-1" d="m44.16,315.37c297.45,202.62,524.05,198.28,693.63,152.79,284.1-76.21,482.56-327.39,665.05-248.44,107.53,46.52,140.24,137.96,268.09,198.75,16.39,7.79,33.47,14.62,51.43,20.19,240.81,74.7,492.7-40.86,676.66-161.26"/>
        <path class="cls-1" d="m40.2,346.85c289.19,169.2,511.41,156.12,679.61,109.77,279.33-76.98,475.78-303.55,653.76-227.7,107.94,46,144.55,134.32,274.08,194.08,16.51,7.61,33.73,14.35,51.87,19.91,246.99,75.79,500.69-34.29,684.38-149.15"/>
        <path class="cls-1" d="m36.24,378.33c280.92,135.78,498.77,113.96,665.59,66.75,274.58-77.72,469.01-279.74,642.46-206.97,108.36,45.46,148.85,130.7,280.07,189.42,16.62,7.44,33.99,14.08,52.3,19.64,253.18,76.86,508.68-27.72,692.1-137.04"/>
        <path class="cls-1" d="m32.29,409.81c272.65,102.36,486.14,71.82,651.57,23.73,269.83-78.45,462.26-255.96,631.16-186.24,108.79,44.9,153.14,127.09,286.06,184.75,16.73,7.26,34.24,13.81,52.73,19.36,259.37,77.92,516.67-21.14,699.82-124.93"/>
        <path class="cls-1" d="m28.33,441.29c264.39,68.94,473.51,29.69,637.55-19.29,265.08-79.15,455.51-232.21,619.86-165.51,109.22,44.33,157.44,123.48,292.05,180.09,16.85,7.08,34.5,13.54,53.16,19.09,265.56,78.97,524.66-14.57,707.54-112.82"/>
        <path class="cls-1" d="m24.37,472.77c256.12,35.52,460.88-12.43,623.53-62.31,260.34-79.85,448.78-208.49,608.56-144.78,109.67,43.73,161.73,119.89,298.04,175.42,16.96,6.91,34.77,13.23,53.6,18.81,271.91,79.49,532.65-8,715.27-100.71"/>
        <path class="cls-1" d="m20.41,504.25c247.85,2.1,448.26-54.54,609.51-105.33,255.61-80.52,442.06-184.8,597.26-124.05,110.12,43.1,166.02,116.31,304.03,170.76,17.07,6.74,35.02,12.96,54.03,18.54,278.09,80.58,540.64-1.43,722.99-88.6"/>
        <path class="cls-1" d="m16.46,535.73c239.58-31.32,435.64-96.63,595.49-148.35,250.88-81.17,435.35-161.14,585.96-103.32,110.58,42.45,170.3,112.73,310.01,166.09,17.18,6.56,35.28,12.69,54.46,18.26,284.28,81.67,548.63,5.15,730.71-76.49"/>
        <path class="cls-1" d="m12.5,567.21c231.32-64.74,423.13-138.41,581.47-191.37,246.32-81.34,428.65-137.51,574.67-82.59,111.06,41.77,174.5,109.42,316,161.43,17.29,6.42,35.53,12.42,54.9,17.99,290.46,82.76,556.62,11.72,738.43-64.38"/>
        <path class="cls-1" d="m8.54,598.69c223.05-98.16,410.49-180.57,567.45-234.39,241.57-82.1,421.95-113.91,563.37-61.86,111.54,41.05,178.81,105.79,321.99,156.76,17.4,6.24,35.79,12.16,55.33,17.71,296.64,83.85,564.6,18.29,746.15-52.27"/>
        <path class="cls-1" d="m4.58,630.17c214.78-131.58,397.86-222.73,553.43-277.42,236.82-82.86,415.27-90.34,552.07-41.13,112.03,40.3,183.12,102.16,327.98,152.09,17.52,6.06,36.04,11.89,55.76,17.43,302.82,84.94,572.59,24.87,753.88-40.16"/>
        <path class="cls-1" d="m.62,661.65C517.96,248.33,860.79,243.58,1080.81,320.82c126.08,44.26,204.91,113.01,390.16,164.59,309,86.03,580.58,31.44,761.6-28.05"/>
      </g>
    </g>
  </g>
</svg>